<svg viewBox="0 0 64 64" xml:space="preserve" xmlns="http://www.w3.org/2000/svg" enable-background="new 0 0 64 64"><path d="M28 2C16.402 2 7 11.402 7 23h5v-3h1.78A24.923 24.923 0 0 0 30 14V2h-2z" fill="#57a5ff" class="fill-ffcb57"></path><path d="M41 24c-2.757 0-5 2.243-5 5s2.243 5 5 5 5-2.243 5-5-2.243-5-5-5zm3 5c0 .462-.113.894-.301 1.285L42.414 29l1.285-1.285c.188.391.301.823.301 1.285zm-1.715-2.699L41 27.586l-1.285-1.285c.391-.188.823-.301 1.285-.301s.894.113 1.285.301zm-3.984 3.984C38.113 29.894 38 29.462 38 29s.113-.894.301-1.285L39.586 29l-1.285 1.285zm1.414 1.414L41 30.414l1.285 1.285c-.391.188-.823.301-1.285.301s-.894-.113-1.285-.301z" fill="#ff2b2b" class="fill-e56565"></path><path d="M6 23h2C8 11.972 16.972 3 28 3h1v10.534A23.942 23.942 0 0 1 13.78 19H11v19c0 6.486 4.78 11.863 11 12.83V63h9V53h-2v8h-5V51h7V1h-3C15.869 1 6 10.869 6 23zm18 26c-6.065 0-11-4.935-11-11V21h.78c5.48 0 10.81-1.741 15.22-4.938v26.796c-1.72-.447-3-1.999-3-3.858h-2c0 2.967 2.167 5.431 5 5.91V49h-5z" fill="#6b6b6b" class="fill-3f3a34"></path><path d="M1 32c0 3.859 3.14 7 7 7h1V25H8c-3.86 0-7 3.14-7 7zm6 4.899A5.008 5.008 0 0 1 3 32a5.008 5.008 0 0 1 4-4.899v9.798zM21 27c-1.654 0-3 1.346-3 3s1.346 3 3 3 3-1.346 3-3-1.346-3-3-3zm0 4c-.551 0-1-.449-1-1s.449-1 1-1 1 .449 1 1-.449 1-1 1zM56 25h-1v14h1c3.86 0 7-3.141 7-7 0-3.86-3.14-7-7-7zm1 11.899V27.1c2.279.464 4 2.485 4 4.899a5.008 5.008 0 0 1-4 4.9zM33 21h18v17c0 6.065-4.935 11-11 11h-7v2h7c7.168 0 13-5.832 13-13V19H33v2zM40 1h-7v2h2v4h-2v2h4V3h2v8h-6v2h8V3.051C46.598 3.558 51 8.272 51 14v3h2v-3c0-7.168-5.832-13-13-13zM55 11h2V6.816A2.996 2.996 0 0 0 59 4c0-1.654-1.346-3-3-3s-3 1.346-3 3c0 1.302.839 2.402 2 2.816V11zm1-8c.551 0 1 .449 1 1s-.449 1-1 1-1-.449-1-1 .449-1 1-1z" fill="#6b6b6b" class="fill-3f3a34"></path><path d="M45 41c0-2.206-1.794-4-4-4h-8v2h2v4h-2v2h8c2.206 0 4-1.794 4-4zm-2 0c0 1.103-.897 2-2 2v-4c1.103 0 2 .897 2 2zm-6-2h2v4h-2v-4zM34 15h2v2h-2zM39 15h2v2h-2zM44 15h2v2h-2zM41 53h-2v4h-6v2h13v2H33v2h15v-6h-7zM55 13h2v10h-2z" fill="#6b6b6b" class="fill-3f3a34"></path></svg>