<svg viewBox="0 0 64 64" xml:space="preserve" xmlns="http://www.w3.org/2000/svg" enable-background="new 0 0 64 64"><path d="M21.286 37.383a11.932 11.932 0 0 1-.673-1.614L16 35v-6l4.613-.769c.185-.558.412-1.096.673-1.614l-2.721-3.809 4.243-4.243 3.809 2.721a11.932 11.932 0 0 1 1.614-.673L29 16h6l.769 4.613c.558.185 1.096.412 1.614.673l3.809-2.721 4.243 4.243-2.721 3.809c.261.518.488 1.056.673 1.614L48 29v6l-4.613.769a11.932 11.932 0 0 1-.673 1.614l2.721 3.809-4.243 4.243-3.809-2.721c-.518.261-1.056.489-1.614.673L35 48h-6l-.769-4.613a11.932 11.932 0 0 1-1.614-.673l-3.809 2.721-4.243-4.243 2.721-3.809z" fill="#57a5ff" class="fill-ffcb57 fill-4fc8f7"></path><path d="M32 41c4.962 0 9-4.037 9-9s-4.038-9-9-9-9 4.037-9 9 4.038 9 9 9zm-1-9a1.001 1.001 0 1 1 1 1c-.551 0-1-.448-1-1zm1-7c3.86 0 7 3.141 7 7 0 3.519-2.613 6.432-6 6.92v-4.104A2.996 2.996 0 0 0 35 32c0-1.654-1.346-3-3-3s-3 1.346-3 3c0 1.302.839 2.402 2 2.816v4.104c-3.387-.488-6-3.401-6-6.92 0-3.859 3.14-7 7-7z" fill="#6b6b6b" class="fill-3f3a34 fill-a8a8a8"></path><path d="m43.607 26.167-1.786.9c.248.491.456.989.617 1.478l.189.573 4.373.73v4.305l-4.373.729-.189.573a10.87 10.87 0 0 1-.617 1.478l-.272.54 2.58 3.611-3.044 3.045-3.612-2.58-.539.271c-.493.248-.991.456-1.479.617l-.573.189L34.153 47h-4.306l-.729-4.373-.573-.189a10.935 10.935 0 0 1-1.479-.617l-.539-.271-3.612 2.58-3.644-3.644-1.414 1.414 4.843 4.84 4.02-2.871c.207.093.415.18.622.26L28.153 49h7.694l.812-4.871c.207-.08.415-.167.622-.26l4.02 2.871 5.441-5.439-2.872-4.021c.093-.207.18-.414.26-.622l4.87-.81v-7.695l-4.87-.811a13.19 13.19 0 0 0-.523-1.175zM15 28.152v7.695l4.87.811c.152.393.327.786.523 1.175l1.786-.9a10.765 10.765 0 0 1-.617-1.478l-.189-.573-4.373-.73v-4.305l4.373-.729.189-.573c.161-.488.369-.986.617-1.478l.272-.54-2.58-3.611 3.044-3.045 3.612 2.58.54-.272a10.79 10.79 0 0 1 1.478-.616l.573-.189.729-4.374h4.306l.729 4.373.573.189c.494.163.991.37 1.478.616l.54.272 3.612-2.58 3.644 3.644 1.414-1.414-4.843-4.842-4.02 2.872a13.224 13.224 0 0 0-.622-.26L35.847 15h-7.694l-.812 4.87c-.208.081-.416.167-.622.26l-4.02-2.872-5.441 5.441 2.872 4.021c-.093.207-.18.414-.26.622l-4.87.81z" fill="#6b6b6b" class="fill-3f3a34 fill-a8a8a8"></path><path d="M31 19h2v2h-2z" fill="#6b6b6b" class="fill-3f3a34 fill-a8a8a8"></path><path transform="rotate(-45.001 23.514 23.515)" d="M22.515 22.515h2v2h-2z" fill="#6b6b6b" class="fill-3f3a34 fill-a8a8a8"></path><path d="M19 31h2v2h-2z" fill="#6b6b6b" class="fill-3f3a34 fill-a8a8a8"></path><path transform="rotate(-45.001 23.514 40.486)" d="M22.515 39.485h2v2h-2z" fill="#6b6b6b" class="fill-3f3a34 fill-a8a8a8"></path><path d="M31 43h2v2h-2z" fill="#6b6b6b" class="fill-3f3a34 fill-a8a8a8"></path><path transform="rotate(-45.001 40.485 40.486)" d="M39.485 39.485h2v2h-2z" fill="#6b6b6b" class="fill-3f3a34 fill-a8a8a8"></path><path d="M43 31h2v2h-2z" fill="#6b6b6b" class="fill-3f3a34 fill-a8a8a8"></path><path transform="rotate(-45.001 40.485 23.515)" d="M39.485 22.515h2v2h-2z" fill="#6b6b6b" class="fill-3f3a34 fill-a8a8a8"></path><path d="M62.97 31.758C62.918 31.55 57.486 11 32 11S1.082 31.55 1.03 31.758L.969 32l.061.242C1.082 32.45 6.514 53 32 53s30.918-20.55 30.97-20.758l.061-.242-.061-.242zm-59.932.247c.522-1.733 4.22-12.446 16.649-16.98C14.435 18.846 11 25.022 11 32c0 7.025 3.479 13.239 8.793 17.054C7.176 44.594 3.572 33.859 3.038 32.005zM32 13c10.477 0 19 8.523 19 19s-8.523 19-19 19-19-8.523-19-19 8.523-19 19-19zm12.313 35.975C49.565 45.154 53 38.978 53 32c0-7.025-3.479-13.239-8.793-17.054 12.617 4.46 16.22 15.195 16.754 17.049-.521 1.734-4.219 12.446-16.648 16.98z" fill="#6b6b6b" class="fill-3f3a34 fill-a8a8a8"></path><path d="M31 58c0 .552-.449 1-1 1H13.816A2.996 2.996 0 0 0 11 57c-1.654 0-3 1.346-3 3s1.346 3 3 3a2.996 2.996 0 0 0 2.816-2H30c1.654 0 3-1.346 3-3v-3h-2v3zm-20 3a1.001 1.001 0 0 1 0-2 1.001 1.001 0 0 1 0 2zM11 54c1.654 0 3-1.346 3-3v-1h-2v1c0 .552-.449 1-1 1H6.816A2.996 2.996 0 0 0 4 50c-1.654 0-3 1.346-3 3s1.346 3 3 3a2.996 2.996 0 0 0 2.816-2H11zm-7 0a1.001 1.001 0 0 1 0-2 1.001 1.001 0 0 1 0 2zM60 8a2.996 2.996 0 0 0-2.816 2H53c-1.654 0-3 1.346-3 3v1h2v-1c0-.552.449-1 1-1h4.184A2.996 2.996 0 0 0 60 14c1.654 0 3-1.346 3-3s-1.346-3-3-3zm0 4a1.001 1.001 0 0 1 0-2 1.001 1.001 0 0 1 0 2zM53 7c1.654 0 3-1.346 3-3s-1.346-3-3-3a2.996 2.996 0 0 0-2.816 2H34c-1.654 0-3 1.346-3 3v3h2V6c0-.552.449-1 1-1h16.184A2.996 2.996 0 0 0 53 7zm0-4a1.001 1.001 0 1 1-1 1c0-.552.449-1 1-1z" fill="#ff2b2b" class="fill-e56565 fill-ff2b2b"></path></svg>