<svg viewBox="0 0 64 64" xml:space="preserve" xmlns="http://www.w3.org/2000/svg" enable-background="new 0 0 64 64"><path d="M53 11H11V1h42v10zM13 9h38V3H13v6z" fill="#ff2b2b" class="fill-e56565"></path><path d="M15 5h2v2h-2zM19 5h2v2h-2zM23 5h2v2h-2z" fill="#ff2b2b" class="fill-e56565"></path><path d="M48 25a6 6 0 0 0-6-6c-.033 0-.064.006-.096.006l.013-.007A6.002 6.002 0 0 0 31.528 16l-.077.097A5.965 5.965 0 0 0 28 15a6.004 6.004 0 0 0-5.659 4l.053.025C22.263 19.016 22.133 19 22 19a6 6 0 0 0-6 6 6.004 6.004 0 0 0 3.997 5.658l.022-.012c-.019.277-.023.558.004.845.248 2.6 2.58 4.509 5.191 4.509h2.664a5.122 5.122 0 0 1 5.121 5.121V43h7v-3.259c0-.922.637-1.703 1.529-1.938a6.01 6.01 0 0 0 4.059-8.008A5.975 5.975 0 0 0 48 25zm-10.914-3.431c-.027.039-.06.074-.086.114l-.09-.02.176-.094zm-9.825-.214-.261.328a6.073 6.073 0 0 0-.586-.733l.847.405z" fill="#57a5ff" class="fill-ffcb57"></path><path d="M1 52c0 2.757 2.243 5 5 5h12v4h-4v2h36v-2h-4v-4h12c2.757 0 5-2.243 5-5v-3H1v3zm43 9H20v-4h24v4zM3 51h58v1c0 1.654-1.346 3-3 3H6c-1.654 0-3-1.346-3-3v-1zM3 16c0-1.654 1.346-3 3-3h3v-2H6c-2.757 0-5 2.243-5 5v31h2V16zM58 11h-3v2h3c1.654 0 3 1.346 3 3v31h2V16c0-2.757-2.243-5-5-5zM53 13h-2v32H13V13h-2v34h42z" fill="#6b6b6b" class="fill-3f3a34"></path><path d="M19.016 31.311c.005.092.003.183.012.275.289 3.036 3.007 5.414 6.187 5.414h2.664c1.084 0 2.146.44 2.914 1.207A4.094 4.094 0 0 1 32 41.121V43h2v-1.879a6.077 6.077 0 0 0-1.793-4.328A6.084 6.084 0 0 0 27.879 35h-2.664c-2.16 0-4.003-1.583-4.196-3.604a3.971 3.971 0 0 1 1.021-3.086A4.008 4.008 0 0 1 25 27v-2a6.01 6.01 0 0 0-4.44 1.965 5.98 5.98 0 0 0-1.272 2.219A5 5 0 0 1 17 25c0-2.757 2.243-5 5-5 1.679 0 3.237.836 4.167 2.236l1.666-1.107a6.987 6.987 0 0 0-3.994-2.877A5 5 0 0 1 28 16c2.757 0 5 2.243 5 5h2a6.976 6.976 0 0 0-2.056-4.95A5.003 5.003 0 0 1 36 15a4.975 4.975 0 0 1 4.635 3.147 6.98 6.98 0 0 0-4.469 2.982l1.666 1.107A4.996 4.996 0 0 1 42 20c2.757 0 5 2.243 5 5 0 1.177-.419 2.29-1.147 3.174-.994-1.513-2.553-2.641-4.358-3.018-2.112-.442-4.264.073-5.908 1.409A6.978 6.978 0 0 0 33 32h2c0-1.512.674-2.927 1.849-3.882 1.174-.956 2.719-1.32 4.238-1.005 1.88.393 3.407 1.919 3.799 3.8.551 2.645-1.035 5.246-3.611 5.924-1.339.351-2.275 1.546-2.275 2.904V43h2v-3.259c0-.457.314-.848.783-.971 3.607-.947 5.83-4.578 5.062-8.266-.026-.125-.073-.243-.106-.366A6.977 6.977 0 0 0 49 25c0-3.618-2.759-6.604-6.284-6.964A6.972 6.972 0 0 0 36 13a7.007 7.007 0 0 0-4.711 1.825A6.952 6.952 0 0 0 28 14c-2.721 0-5.165 1.593-6.312 4.016C17.973 18.181 15 21.246 15 25c0 2.721 1.594 5.164 4.016 6.311z" fill="#6b6b6b" class="fill-3f3a34"></path></svg>