<svg viewBox="0 0 64 64" xml:space="preserve" xmlns="http://www.w3.org/2000/svg" enable-background="new 0 0 64 64"><path d="M42 20H22a2 2 0 0 1-2-2v-7a2 2 0 0 1 2-2h20a2 2 0 0 1 2 2v7a2 2 0 0 1-2 2zM38 39H26a2 2 0 0 0-2 2v6h16v-6a2 2 0 0 0-2-2z" fill="#57a5ff" class="fill-ffcb57"></path><path d="M1 52c0 2.757 2.243 5 5 5h12v4h-4v2h36v-2h-4v-4h12c2.757 0 5-2.243 5-5v-3H1v3zm43 9H20v-4h24v4zM3 51h58v1c0 1.654-1.346 3-3 3H6c-1.654 0-3-1.346-3-3v-1zM3 16c0-1.654 1.346-3 3-3h7v-2H6c-2.757 0-5 2.243-5 5v31h2V16zM58 11v2c1.654 0 3 1.346 3 3v31h2V16c0-2.757-2.243-5-5-5zM19 33.423l8-1.604V29h-2v1.181l-8 1.603V47h2zM47 47V32.221l-8-2.002V29h-2v2.781l8 2.002V47zM15 34v-2h-4c-1.103 0-2 .897-2 2v8c0 1.103.897 2 2 2v3h2v-3h2v-2h-4v-8h4zM51 47h2v-3c1.103 0 2-.897 2-2v-8c0-1.103-.897-2-2-2h-4v2h4v8h-4v2h2v3zM21.406 20.94C22.712 25.652 27.047 29 32 29s9.288-3.348 10.594-8.06A3.004 3.004 0 0 0 45 18v-7a2.993 2.993 0 0 0-2.747-2.974C40.621 3.797 36.589 1 32 1s-8.621 2.797-10.253 7.026A2.993 2.993 0 0 0 19 11v7a3.004 3.004 0 0 0 2.406 2.94zM32 27c-3.841 0-7.225-2.462-8.478-6h16.955c-1.252 3.538-4.636 6-8.477 6zm0-24a8.957 8.957 0 0 1 8.064 5H23.936A8.957 8.957 0 0 1 32 3zm-11 8c0-.551.448-1 1-1h20c.552 0 1 .449 1 1v7c0 .551-.448 1-1 1H22c-.552 0-1-.449-1-1v-7z" fill="#6b6b6b" class="fill-3f3a34"></path><path d="M27.5 17c1.379 0 2.5-1.122 2.5-2.5S28.879 12 27.5 12 25 13.122 25 14.5s1.121 2.5 2.5 2.5zm0-3a.5.5 0 1 1-.002 1.002A.5.5 0 0 1 27.5 14zM36.5 17c1.379 0 2.5-1.122 2.5-2.5S37.879 12 36.5 12 34 13.122 34 14.5s1.121 2.5 2.5 2.5zm0-3a.5.5 0 1 1-.002 1.002A.5.5 0 0 1 36.5 14zM41 47v-6c0-1.654-1.346-3-3-3H26c-1.654 0-3 1.346-3 3v6h2v-6c0-.551.448-1 1-1h12c.552 0 1 .449 1 1v6h2z" fill="#6b6b6b" class="fill-3f3a34"></path><path d="M27 47h2c0-1.654 1.346-3 3-3s3 1.346 3 3h2c0-2.757-2.243-5-5-5s-5 2.243-5 5z" fill="#6b6b6b" class="fill-3f3a34"></path><path d="M47 18.618V6h12v10h-6.764L47 18.618zM49 8v7.382L51.764 14H57V8h-8z" fill="#ff2b2b" class="fill-e56565"></path><path d="M51 10h4v2h-4zM17 30H5V20h6.764L17 17.382V30zM7 28h8v-7.382L12.236 22H7v6z" fill="#ff2b2b" class="fill-e56565"></path><path d="M9 24h4v2H9z" fill="#ff2b2b" class="fill-e56565"></path></svg>