<svg viewBox="0 0 64 64" xml:space="preserve" xmlns="http://www.w3.org/2000/svg" enable-background="new 0 0 64 64"><path d="M39 9a7 7 0 0 0-7.119-6.999c-3.654.061-6.745 3.089-6.877 6.741a6.953 6.953 0 0 0 1.584 4.691C28.064 15.226 29 17.399 29 19.721V22h6v-1.943c0-2.477.979-4.799 2.51-6.747A6.945 6.945 0 0 0 39 9z" fill="#57a5ff" class="fill-ffcb57"></path><path d="M1 52c0 2.757 2.243 5 5 5h12v4h-4v2h36v-2h-4v-4h12c2.757 0 5-2.243 5-5v-3H1v3zm43 9H20v-4h24v4zM3 51h58v1c0 1.654-1.346 3-3 3H6c-1.654 0-3-1.346-3-3v-1zM3 16c0-1.654 1.346-3 3-3h16v-2H6c-2.757 0-5 2.243-5 5v31h2V16zM58 11H42v2h16c1.654 0 3 1.346 3 3v31h2V16c0-2.757-2.243-5-5-5z" fill="#6b6b6b" class="fill-3f3a34"></path><path d="M51 45H13V17h9v-2H11v32h42V15H42v2h9z" fill="#6b6b6b" class="fill-3f3a34"></path><path d="M28 19.721V23h8v-2.942c0-2.1.794-4.219 2.296-6.129A7.899 7.899 0 0 0 40 9a7.94 7.94 0 0 0-2.391-5.704A7.938 7.938 0 0 0 32.001 1l-.137.001c-4.184.069-7.709 3.526-7.858 7.705a7.972 7.972 0 0 0 1.811 5.363C27.245 15.804 28 17.758 28 19.721zM34 21h-4v-1h4.003c0 .019-.003.038-.003.058V21zM31.897 3.001a5.91 5.91 0 0 1 4.31 1.721A5.956 5.956 0 0 1 38 9a5.914 5.914 0 0 1-1.276 3.692c-1.302 1.655-2.149 3.46-2.515 5.308H33v-5h-2v5h-1.157c-.326-1.83-1.165-3.603-2.482-5.203a5.976 5.976 0 0 1-1.357-4.02c.112-3.132 2.756-5.724 5.893-5.776zM32 25c-.552 0-1-.449-1-1h-2c0 1.654 1.346 3 3 3s3-1.346 3-3h-2c0 .551-.448 1-1 1z" fill="#6b6b6b" class="fill-3f3a34"></path><path d="M31 9h2v2h-2zM32 37c4.411 0 8-3.589 8-8a7.94 7.94 0 0 0-2.398-5.711l-1.4 1.428A5.955 5.955 0 0 1 38 29c0 3.309-2.691 6-6 6s-6-2.691-6-6c0-1.58.608-3.071 1.714-4.198l-1.428-1.4A7.952 7.952 0 0 0 24 29c0 4.411 3.589 8 8 8z" fill="#6b6b6b" class="fill-3f3a34"></path><path d="M35.781 43h-7.562l-.722-2.887-.171-.071-2.553 1.531-4.794-4.794 1.414-1.414 3.69 3.69 2.122-1.273.484.231a9.8 9.8 0 0 0 .982.407l.508.179.602 2.401h4.438l.601-2.401.508-.179a9.8 9.8 0 0 0 .982-.407l.484-.231 2.122 1.273 3.139-3.138-1.273-2.123.232-.485c.152-.318.288-.646.407-.982l.179-.506 2.4-.6v-4.438l-2.4-.6-.179-.506a10.084 10.084 0 0 0-.407-.982l1.803-.864c.105.219.204.443.296.669l2.887.719v7.562l-2.888.722-.07.171 1.53 2.553-5.346 5.346-2.553-1.531-.171.071L35.781 43zM21.184 34.172a12.121 12.121 0 0 1-.296-.669L18 32.781v-7.562l2.888-.722.07-.171-1.53-2.553 4.794-4.794 1.414 1.414-3.69 3.69 1.273 2.123-.232.485c-.152.318-.288.646-.407.982l-.18.508-2.4.6v4.438l2.4.6.179.506c.119.336.255.664.407.982l-1.802.865z" fill="#ff2b2b" class="fill-e56565"></path><path transform="rotate(-45.001 41.192 19.808)" d="M40.192 16.808h2v5.999h-2z" fill="#ff2b2b" class="fill-e56565"></path></svg>